<svg width="55" height="45" viewBox="0 0 55 45" fill="none" xmlns="http://www.w3.org/2000/svg">
<path d="M43.664 44.9547C39.0518 44.9616 35.5603 43.0643 33.1895 39.2628C31.1743 36.0553 30.1633 32.1328 30.1564 27.4954C30.1475 21.5499 31.6178 16.1968 34.5673 11.436C37.635 6.67505 42.2415 2.86305 48.3868 0L49.988 3.20814C46.3243 4.75946 43.1349 7.20188 40.4198 10.5354C37.823 13.8688 36.5272 17.2596 36.5323 20.708C36.5345 22.1349 36.7137 23.3832 37.0701 24.4528C38.9599 22.9041 41.1466 22.128 43.6301 22.1242C46.8231 22.1194 49.4855 23.1856 51.6174 25.3228C53.8673 27.3409 54.9949 30.0741 55 33.5224C55.0048 36.733 53.8853 39.4695 51.6418 41.7322C49.5163 43.8757 46.857 44.9499 43.664 44.9547ZM13.5076 45C8.89551 45.0069 5.40401 43.1096 3.03315 39.3081C1.01796 36.1006 0.00692636 32.1781 3.9528e-05 27.5406C-0.00878975 21.5952 1.46152 16.2421 4.41095 11.4813C7.47865 6.72033 12.0851 2.90833 18.2304 0.0452763L19.8317 3.25342C16.1679 4.80474 12.9785 7.24716 10.2635 10.5807C7.66673 13.914 6.3709 17.3049 6.37602 20.7533C6.37814 22.1802 6.55738 23.4284 6.91375 24.4981C8.80362 22.9494 10.9903 22.1732 13.4737 22.1695C16.6668 22.1647 19.3292 23.2309 21.4611 25.3681C23.711 27.3861 24.8385 30.1193 24.8437 33.5677C24.8484 36.7782 23.729 39.5148 21.4854 41.7775C19.3599 43.921 16.7007 44.9952 13.5076 45Z" fill="black" fill-opacity="0.24"/>
</svg>
